<svg width="32" height="32" viewBox="0 0 32 32" fill="none" xmlns="http://www.w3.org/2000/svg">
<path d="M17 15V22C17 22.2652 16.8947 22.5196 16.7071 22.7071C16.5196 22.8946 16.2653 23 16 23C15.7348 23 15.4805 22.8946 15.2929 22.7071C15.1054 22.5196 15 22.2652 15 22V15C15 14.7348 15.1054 14.4804 15.2929 14.2929C15.4805 14.1054 15.7348 14 16 14C16.2653 14 16.5196 14.1054 16.7071 14.2929C16.8947 14.4804 17 14.7348 17 15ZM29.9825 12.2637L28.25 25.265C28.1858 25.7455 27.9492 26.1863 27.5843 26.5054C27.2195 26.8246 26.7511 27.0003 26.2663 27H5.73379C5.24902 27.0003 4.78063 26.8246 4.41573 26.5054C4.05084 26.1863 3.81427 25.7455 3.75004 25.265L2.01629 12.265C1.97851 11.9824 2.0016 11.6949 2.08401 11.422C2.16642 11.149 2.30625 10.8968 2.49412 10.6823C2.68199 10.4678 2.91355 10.2959 3.17328 10.1783C3.43301 10.0606 3.7149 9.9998 4.00004 10H8.54629L15.25 2.34125C15.3439 2.23484 15.4593 2.14962 15.5886 2.09125C15.7179 2.03287 15.8582 2.00269 16 2.00269C16.1419 2.00269 16.2822 2.03287 16.4115 2.09125C16.5408 2.14962 16.6562 2.23484 16.75 2.34125L23.4538 10H28C28.2849 10.0002 28.5663 10.0612 28.8257 10.1789C29.085 10.2967 29.3162 10.4685 29.5038 10.6828C29.6913 10.8971 29.831 11.149 29.9133 11.4217C29.9957 11.6943 30.0189 11.9814 29.9813 12.2637H29.9825ZM11.2038 10H20.7963L16 4.51875L11.2038 10ZM28 12H4.00004L5.73379 25H26.2663L28 12ZM21.605 14.9L20.905 21.9C20.8912 22.0311 20.9034 22.1636 20.941 22.2899C20.9785 22.4162 21.0407 22.5339 21.1238 22.6361C21.207 22.7383 21.3096 22.8231 21.4256 22.8855C21.5417 22.948 21.6689 22.9869 21.8 23C21.8338 23.0018 21.8676 23.0018 21.9013 23C22.149 22.9997 22.3877 22.9075 22.5713 22.7412C22.7549 22.5749 22.8703 22.3464 22.895 22.1L23.595 15.1C23.6216 14.8361 23.5422 14.5725 23.3743 14.3671C23.2065 14.1618 22.9639 14.0315 22.7 14.005C22.4362 13.9785 22.1725 14.0579 21.9672 14.2257C21.7618 14.3936 21.6316 14.6361 21.605 14.9ZM10.395 14.9C10.3685 14.6361 10.2383 14.3936 10.0329 14.2257C9.82755 14.0579 9.56393 13.9785 9.30004 14.005C9.03615 14.0315 8.7936 14.1618 8.62576 14.3671C8.45791 14.5725 8.37852 14.8361 8.40504 15.1L9.10504 22.1C9.12991 22.3475 9.24616 22.5769 9.43107 22.7433C9.61597 22.9097 9.85627 23.0012 10.105 23C10.1388 23.0018 10.1726 23.0018 10.2063 23C10.337 22.9869 10.4638 22.9481 10.5795 22.886C10.6951 22.8239 10.7975 22.7395 10.8806 22.6379C10.9637 22.5362 11.026 22.4191 11.0638 22.2934C11.1017 22.1676 11.1144 22.0357 11.1013 21.905L10.395 14.9Z" fill="#878787"/>
</svg>
