<svg width="21" height="23" viewBox="0 0 21 23" fill="none" xmlns="http://www.w3.org/2000/svg">
<path d="M20.7617 16.6213C20.1546 15.5755 19.2521 12.6164 19.2521 8.75153C19.2521 6.43048 18.3301 4.20449 16.6888 2.56326C15.0476 0.922033 12.8216 0 10.5006 0C8.17951 0 5.95353 0.922033 4.3123 2.56326C2.67107 4.20449 1.74904 6.43048 1.74904 8.75153C1.74904 12.6175 0.845442 15.5755 0.238305 16.6213C0.0832614 16.8872 0.00106691 17.1893 1.03169e-05 17.497C-0.00104628 17.8048 0.0790726 18.1074 0.232287 18.3744C0.385501 18.6413 0.606394 18.8631 0.872687 19.0174C1.13898 19.1718 1.44126 19.2531 1.74904 19.2534H6.21341C6.41532 20.2414 6.95228 21.1293 7.73348 21.767C8.51467 22.4047 9.49214 22.753 10.5006 22.753C11.509 22.753 12.4865 22.4047 13.2676 21.767C14.0488 21.1293 14.5858 20.2414 14.7877 19.2534H19.2521C19.5598 19.2529 19.8619 19.1714 20.1281 19.017C20.3942 18.8626 20.6149 18.6408 20.768 18.3739C20.9211 18.107 21.0011 17.8045 21 17.4968C20.9989 17.1891 20.9167 16.8871 20.7617 16.6213ZM10.5006 21.0037C9.95777 21.0035 9.42837 20.8351 8.98523 20.5216C8.5421 20.2082 8.207 19.7651 8.02607 19.2534H12.9751C12.7941 19.7651 12.459 20.2082 12.0159 20.5216C11.5728 20.8351 11.0434 21.0035 10.5006 21.0037ZM1.74904 17.5031C2.59137 16.0547 3.49934 12.6985 3.49934 8.75153C3.49934 6.89469 4.23697 5.1139 5.54995 3.80092C6.86294 2.48793 8.64372 1.75031 10.5006 1.75031C12.3574 1.75031 14.1382 2.48793 15.4512 3.80092C16.7642 5.1139 17.5018 6.89469 17.5018 8.75153C17.5018 12.6952 18.4076 16.0514 19.2521 17.5031H1.74904Z" fill="#878787"/>
</svg>
