<svg width="17" height="18" viewBox="0 0 17 18" fill="none" xmlns="http://www.w3.org/2000/svg">
<path d="M15.2308 1.38462H13.1538V0.692308C13.1538 0.508696 13.0809 0.332605 12.9511 0.202772C12.8212 0.0729393 12.6452 0 12.4615 0C12.2779 0 12.1018 0.0729393 11.972 0.202772C11.8422 0.332605 11.7692 0.508696 11.7692 0.692308V1.38462H4.84615V0.692308C4.84615 0.508696 4.77321 0.332605 4.64338 0.202772C4.51355 0.0729393 4.33746 0 4.15385 0C3.97023 0 3.79414 0.0729393 3.66431 0.202772C3.53448 0.332605 3.46154 0.508696 3.46154 0.692308V1.38462H1.38462C1.01739 1.38462 0.66521 1.53049 0.405544 1.79016C0.145879 2.04983 0 2.40201 0 2.76923V16.6154C0 16.9826 0.145879 17.3348 0.405544 17.5945C0.66521 17.8541 1.01739 18 1.38462 18H15.2308C15.598 18 15.9502 17.8541 16.2098 17.5945C16.4695 17.3348 16.6154 16.9826 16.6154 16.6154V2.76923C16.6154 2.40201 16.4695 2.04983 16.2098 1.79016C15.9502 1.53049 15.598 1.38462 15.2308 1.38462ZM3.46154 2.76923V3.46154C3.46154 3.64515 3.53448 3.82124 3.66431 3.95107C3.79414 4.08091 3.97023 4.15385 4.15385 4.15385C4.33746 4.15385 4.51355 4.08091 4.64338 3.95107C4.77321 3.82124 4.84615 3.64515 4.84615 3.46154V2.76923H11.7692V3.46154C11.7692 3.64515 11.8422 3.82124 11.972 3.95107C12.1018 4.08091 12.2779 4.15385 12.4615 4.15385C12.6452 4.15385 12.8212 4.08091 12.9511 3.95107C13.0809 3.82124 13.1538 3.64515 13.1538 3.46154V2.76923H15.2308V5.53846H1.38462V2.76923H3.46154ZM15.2308 16.6154H1.38462V6.92308H15.2308V16.6154Z" fill="#515161"/>
</svg>
