<svg width="16" height="9" viewBox="0 0 16 9" fill="none" xmlns="http://www.w3.org/2000/svg">
<path d="M15.7869 1.24216L8.51454 8.51454C8.447 8.58215 8.36679 8.63579 8.27851 8.67239C8.19022 8.70899 8.09559 8.72783 8.00002 8.72783C7.90445 8.72783 7.80981 8.70899 7.72153 8.67239C7.63324 8.63579 7.55304 8.58215 7.4855 8.51454L0.213121 1.24216C0.076662 1.1057 0 0.920624 0 0.727642C0 0.534659 0.076662 0.34958 0.213121 0.213121C0.349581 0.0766616 0.534659 0 0.727642 0C0.920624 0 1.1057 0.0766616 1.24216 0.213121L8.00002 6.97189L14.7579 0.213121C14.8254 0.145553 14.9057 0.0919555 14.9939 0.0553881C15.0822 0.0188207 15.1768 0 15.2724 0C15.3679 0 15.4626 0.0188207 15.5508 0.0553881C15.6391 0.0919555 15.7193 0.145553 15.7869 0.213121C15.8545 0.280689 15.9081 0.360904 15.9446 0.449185C15.9812 0.537467 16 0.632087 16 0.727642C16 0.823197 15.9812 0.917817 15.9446 1.0061C15.9081 1.09438 15.8545 1.17459 15.7869 1.24216Z" fill="#878787"/>
</svg>
