<svg width="22" height="22" viewBox="0 0 22 22" fill="none" xmlns="http://www.w3.org/2000/svg">
<path d="M18.3613 8.73642L11.4863 15.6114C11.4225 15.6753 11.3466 15.7261 11.2632 15.7607C11.1797 15.7952 11.0902 15.8131 10.9999 15.8131C10.9095 15.8131 10.8201 15.7952 10.7366 15.7607C10.6532 15.7261 10.5773 15.6753 10.5135 15.6114L3.63849 8.73642C3.50948 8.60742 3.43701 8.43245 3.43701 8.25002C3.43701 8.06758 3.50948 7.89261 3.63849 7.76361C3.76749 7.63461 3.94246 7.56213 4.12489 7.56213C4.30733 7.56213 4.4823 7.63461 4.6113 7.76361L10.9999 14.1531L17.3885 7.76361C17.4524 7.69973 17.5282 7.64906 17.6117 7.6145C17.6951 7.57993 17.7846 7.56213 17.8749 7.56213C17.9652 7.56213 18.0547 7.57993 18.1381 7.6145C18.2216 7.64906 18.2974 7.69973 18.3613 7.76361C18.4252 7.82749 18.4758 7.90332 18.5104 7.98677C18.545 8.07023 18.5628 8.15968 18.5628 8.25002C18.5628 8.34035 18.545 8.4298 18.5104 8.51326C18.4758 8.59672 18.4252 8.67255 18.3613 8.73642Z" fill="#878787"/>
</svg>
