<svg width="18" height="18" viewBox="0 0 18 18" fill="none" xmlns="http://www.w3.org/2000/svg">
<path d="M15.023 11.6479C14.9708 11.7002 14.9088 11.7417 14.8405 11.77C14.7722 11.7983 14.699 11.8129 14.6251 11.8129C14.5511 11.8129 14.478 11.7983 14.4097 11.77C14.3414 11.7417 14.2793 11.7002 14.2271 11.6479L9.00007 6.42019L3.77304 11.6479C3.66749 11.7535 3.52434 11.8128 3.37507 11.8128C3.2258 11.8128 3.08265 11.7535 2.9771 11.6479C2.87155 11.5424 2.81226 11.3992 2.81226 11.25C2.81226 11.1007 2.87155 10.9575 2.9771 10.852L8.6021 5.22699C8.65434 5.17469 8.71638 5.1332 8.78466 5.10489C8.85295 5.07658 8.92615 5.06201 9.00007 5.06201C9.07399 5.06201 9.14719 5.07658 9.21547 5.10489C9.28376 5.1332 9.3458 5.17469 9.39804 5.22699L15.023 10.852C15.0753 10.9042 15.1168 10.9663 15.1451 11.0346C15.1734 11.1028 15.188 11.176 15.188 11.25C15.188 11.3239 15.1734 11.3971 15.1451 11.4654C15.1168 11.5336 15.0753 11.5957 15.023 11.6479Z" fill="white"/>
</svg>
