<svg width="22" height="22" viewBox="0 0 22 22" fill="none" xmlns="http://www.w3.org/2000/svg">
<path d="M14.9239 8.45109C14.9878 8.51494 15.0385 8.59077 15.0731 8.67423C15.1077 8.75769 15.1255 8.84715 15.1255 8.9375C15.1255 9.02785 15.1077 9.11731 15.0731 9.20077C15.0385 9.28423 14.9878 9.36006 14.9239 9.42391L10.1114 14.2364C10.0476 14.3003 9.97174 14.351 9.88828 14.3856C9.80481 14.4202 9.71535 14.438 9.625 14.438C9.53466 14.438 9.44519 14.4202 9.36173 14.3856C9.27827 14.351 9.20245 14.3003 9.1386 14.2364L7.0761 12.1739C6.94709 12.0449 6.87462 11.8699 6.87462 11.6875C6.87462 11.5051 6.94709 11.3301 7.0761 11.2011C7.2051 11.0721 7.38007 10.9996 7.5625 10.9996C7.74494 10.9996 7.91991 11.0721 8.04891 11.2011L9.625 12.778L13.9511 8.45109C14.0149 8.38717 14.0908 8.33646 14.1742 8.30187C14.2577 8.26727 14.3472 8.24946 14.4375 8.24946C14.5279 8.24946 14.6173 8.26727 14.7008 8.30187C14.7842 8.33646 14.8601 8.38717 14.9239 8.45109ZM19.9375 11C19.9375 12.7677 19.4133 14.4956 18.4313 15.9654C17.4492 17.4352 16.0534 18.5807 14.4202 19.2572C12.7871 19.9336 10.9901 20.1106 9.25638 19.7658C7.52268 19.4209 5.93017 18.5697 4.68024 17.3198C3.43031 16.0698 2.57909 14.4773 2.23424 12.7436C1.88938 11.0099 2.06637 9.21288 2.74283 7.57977C3.41929 5.94665 4.56483 4.55081 6.0346 3.56874C7.50436 2.58668 9.23233 2.0625 11 2.0625C13.3696 2.065 15.6414 3.00743 17.317 4.683C18.9926 6.35856 19.935 8.6304 19.9375 11ZM18.5625 11C18.5625 9.50428 18.119 8.04215 17.288 6.7985C16.457 5.55485 15.2759 4.58555 13.894 4.01316C12.5122 3.44077 10.9916 3.29101 9.52463 3.58281C8.05765 3.87461 6.71014 4.59487 5.65251 5.65251C4.59487 6.71014 3.87462 8.05765 3.58282 9.52463C3.29101 10.9916 3.44078 12.5122 4.01316 13.894C4.58555 15.2759 5.55486 16.457 6.7985 17.288C8.04215 18.119 9.50428 18.5625 11 18.5625C13.005 18.5602 14.9272 17.7627 16.345 16.345C17.7627 14.9272 18.5602 13.005 18.5625 11Z" fill="#89D233"/>
</svg>
