<svg width="22" height="22" viewBox="0 0 22 22" fill="none" xmlns="http://www.w3.org/2000/svg">
<path d="M12.0313 11C12.0313 11.204 11.9708 11.4033 11.8575 11.5729C11.7441 11.7425 11.5831 11.8747 11.3946 11.9528C11.2062 12.0308 10.9989 12.0512 10.7988 12.0114C10.5988 11.9716 10.415 11.8734 10.2708 11.7292C10.1266 11.585 10.0284 11.4012 9.98857 11.2012C9.94877 11.0011 9.9692 10.7938 10.0472 10.6054C10.1253 10.4169 10.2575 10.2559 10.4271 10.1425C10.5967 10.0292 10.796 9.96875 11 9.96875C11.2735 9.96875 11.5358 10.0774 11.7292 10.2708C11.9226 10.4642 12.0313 10.7265 12.0313 11ZM11 6.1875C11.204 6.1875 11.4033 6.12702 11.5729 6.0137C11.7425 5.90039 11.8747 5.73933 11.9528 5.55089C12.0308 5.36246 12.0512 5.15511 12.0114 4.95506C11.9716 4.75502 11.8734 4.57127 11.7292 4.42705C11.585 4.28282 11.4012 4.18461 11.2012 4.14482C11.0011 4.10502 10.7938 4.12545 10.6054 4.2035C10.4169 4.28155 10.2559 4.41373 10.1425 4.58332C10.0292 4.75291 9.96875 4.95229 9.96875 5.15625C9.96875 5.42975 10.0774 5.69206 10.2708 5.88545C10.4642 6.07885 10.7265 6.1875 11 6.1875ZM11 15.8125C10.796 15.8125 10.5967 15.873 10.4271 15.9863C10.2575 16.0996 10.1253 16.2607 10.0472 16.4491C9.9692 16.6375 9.94877 16.8449 9.98857 17.0449C10.0284 17.245 10.1266 17.4287 10.2708 17.573C10.415 17.7172 10.5988 17.8154 10.7988 17.8552C10.9989 17.895 11.2062 17.8746 11.3946 17.7965C11.5831 17.7184 11.7441 17.5863 11.8575 17.4167C11.9708 17.2471 12.0313 17.0477 12.0313 16.8437C12.0313 16.5702 11.9226 16.3079 11.7292 16.1145C11.5358 15.9211 11.2735 15.8125 11 15.8125Z" fill="#515161"/>
</svg>
