<svg width="22" height="22" viewBox="0 0 22 22" fill="none" xmlns="http://www.w3.org/2000/svg">
<path d="M11.5 11C11.5 11.2077 11.4384 11.4107 11.323 11.5834C11.2077 11.756 11.0437 11.8906 10.8518 11.9701C10.66 12.0496 10.4488 12.0703 10.2452 12.0298C10.0415 11.9893 9.85438 11.8893 9.70754 11.7425C9.56069 11.5956 9.46069 11.4085 9.42018 11.2048C9.37966 11.0012 9.40045 10.79 9.47993 10.5982C9.5594 10.4063 9.69398 10.2423 9.86665 10.127C10.0393 10.0116 10.2423 9.95 10.45 9.95C10.7285 9.95 10.9955 10.0606 11.1925 10.2575C11.3894 10.4544 11.5 10.7215 11.5 11ZM10.45 6.1C10.6577 6.1 10.8607 6.03842 11.0334 5.92304C11.206 5.80767 11.3406 5.64368 11.4201 5.45182C11.4996 5.25996 11.5203 5.04884 11.4798 4.84516C11.4393 4.64148 11.3393 4.45438 11.1925 4.30754C11.0456 4.16069 10.8585 4.06069 10.6548 4.02018C10.4512 3.97966 10.24 4.00045 10.0482 4.07993C9.85632 4.1594 9.69233 4.29398 9.57696 4.46665C9.46158 4.63932 9.4 4.84233 9.4 5.05C9.4 5.32848 9.51062 5.59555 9.70754 5.79246C9.90445 5.98938 10.1715 6.1 10.45 6.1ZM10.45 15.9C10.2423 15.9 10.0393 15.9616 9.86665 16.077C9.69398 16.1923 9.5594 16.3563 9.47993 16.5482C9.40045 16.74 9.37966 16.9512 9.42018 17.1548C9.46069 17.3585 9.56069 17.5456 9.70754 17.6925C9.85438 17.8393 10.0415 17.9393 10.2452 17.9798C10.4488 18.0203 10.66 17.9995 10.8518 17.9201C11.0437 17.8406 11.2077 17.706 11.323 17.5333C11.4384 17.3607 11.5 17.1577 11.5 16.95C11.5 16.6715 11.3894 16.4045 11.1925 16.2075C10.9955 16.0106 10.7285 15.9 10.45 15.9Z" fill="#515161"/>
</svg>
