<svg width="22" height="22" viewBox="0 0 22 22" fill="none" xmlns="http://www.w3.org/2000/svg">
<path d="M11 9.5C10.7925 9.5 10.5899 9.56156 10.4166 9.67687C10.2433 9.79218 10.1082 9.95596 10.0275 10.1475C9.94679 10.339 9.9259 10.5499 9.96636 10.7533C10.0068 10.9568 10.1068 11.1437 10.2537 11.2905C10.4006 11.4374 10.5875 11.5373 10.791 11.5778C10.9944 11.6182 11.2053 11.5973 11.3969 11.5166C11.5884 11.4359 11.7522 11.3008 11.8675 11.1275C11.9828 10.9542 12.0444 10.7516 12.0444 10.5441C12.0444 10.2659 11.9339 9.99904 11.7372 9.80228C11.5404 9.60552 11.2736 9.49496 10.9953 9.49496L11 9.5ZM5.99998 9.5C5.79244 9.5 5.58988 9.56156 5.41657 9.67687C5.24326 9.79218 5.10817 9.95596 5.02746 10.1475C4.94675 10.339 4.92587 10.5499 4.96632 10.7533C5.00678 10.9568 5.10676 11.1437 5.25363 11.2905C5.40049 11.4374 5.58743 11.5373 5.79088 11.5778C5.99434 11.6182 6.20525 11.5973 6.3968 11.5166C6.58835 11.4359 6.75213 11.3008 6.86744 11.1275C6.98275 10.9542 7.04431 10.7516 7.04431 10.5441C7.04431 10.2659 6.93375 9.99904 6.73699 9.80228C6.54023 9.60552 6.27339 9.49496 5.99514 9.49496L5.99998 9.5ZM16 9.5C15.7925 9.5 15.5899 9.56156 15.4166 9.67687C15.2433 9.79218 15.1082 9.95596 15.0275 10.1475C14.9468 10.339 14.9259 10.5499 14.9663 10.7533C15.0068 10.9568 15.1068 11.1437 15.2537 11.2905C15.4005 11.4374 15.5875 11.5373 15.7909 11.5778C15.9944 11.6182 16.2053 11.5973 16.3968 11.5166C16.5884 11.4359 16.7522 11.3008 16.8675 11.1275C16.9828 10.9542 17.0444 10.7516 17.0444 10.5441C17.0444 10.2659 16.9338 9.99904 16.737 9.80228C16.5403 9.60552 16.2734 9.49496 15.9952 9.49496L16 9.5Z" fill="#515161"/>
</svg> 