<svg width="23" height="18" viewBox="0 0 23 18" fill="none" xmlns="http://www.w3.org/2000/svg">
<path d="M22.1154 0H0.884615C0.650001 0 0.424995 0.0932005 0.259098 0.259098C0.0932002 0.424996 0 0.650001 0 0.884615V15.9231C0 16.3923 0.1864 16.8423 0.518196 17.1741C0.849991 17.5059 1.3 17.6923 1.76923 17.6923H21.2308C21.7 17.6923 22.15 17.5059 22.4818 17.1741C22.8136 16.8423 23 16.3923 23 15.9231V0.884615C23 0.650001 22.9068 0.424996 22.7409 0.259098C22.575 0.0932005 22.35 0 22.1154 0ZM19.8408 1.76923L11.5 9.41562L3.15918 1.76923H19.8408ZM21.2308 15.9231H1.76923V2.89601L10.9018 11.2678C11.065 11.4176 11.2785 11.5007 11.5 11.5007C11.7215 11.5007 11.935 11.4176 12.0982 11.2678L21.2308 2.89601V15.9231Z" fill="#878787"/>
</svg>
