<svg width="20" height="10" viewBox="0 0 20 10" fill="none" xmlns="http://www.w3.org/2000/svg">
<path d="M16.4286 5C16.4286 5.18944 16.3533 5.37112 16.2194 5.50508C16.0854 5.63903 15.9037 5.71429 15.7143 5.71429H4.28571C4.09627 5.71429 3.91459 5.63903 3.78064 5.50508C3.64668 5.37112 3.57143 5.18944 3.57143 5C3.57143 4.81056 3.64668 4.62888 3.78064 4.49492C3.91459 4.36097 4.09627 4.28571 4.28571 4.28571H15.7143C15.9037 4.28571 16.0854 4.36097 16.2194 4.49492C16.3533 4.62888 16.4286 4.81056 16.4286 5ZM19.2857 0H0.714286C0.524845 0 0.343164 0.075255 0.209209 0.20921C0.0752549 0.343164 0 0.524845 0 0.714286C0 0.903726 0.0752549 1.08541 0.209209 1.21936C0.343164 1.35332 0.524845 1.42857 0.714286 1.42857H19.2857C19.4752 1.42857 19.6568 1.35332 19.7908 1.21936C19.9247 1.08541 20 0.903726 20 0.714286C20 0.524845 19.9247 0.343164 19.7908 0.20921C19.6568 0.075255 19.4752 0 19.2857 0ZM12.1429 8.57143H7.85714C7.6677 8.57143 7.48602 8.64668 7.35207 8.78064C7.21811 8.91459 7.14286 9.09627 7.14286 9.28571C7.14286 9.47516 7.21811 9.65684 7.35207 9.79079C7.48602 9.92475 7.6677 10 7.85714 10H12.1429C12.3323 10 12.514 9.92475 12.6479 9.79079C12.7819 9.65684 12.8571 9.47516 12.8571 9.28571C12.8571 9.09627 12.7819 8.91459 12.6479 8.78064C12.514 8.64668 12.3323 8.57143 12.1429 8.57143Z" fill="#515161"/>
</svg>
