<svg width="23" height="23" viewBox="0 0 23 23" fill="none" xmlns="http://www.w3.org/2000/svg">
<path d="M11.5 0C9.22552 0 7.00211 0.674463 5.11095 1.9381C3.21978 3.20174 1.7458 4.99779 0.875391 7.09914C0.00498277 9.20049 -0.222756 11.5128 0.220974 13.7435C0.664705 15.9743 1.75997 18.0234 3.36828 19.6317C4.97658 21.24 7.02569 22.3353 9.25647 22.779C11.4872 23.2228 13.7995 22.995 15.9009 22.1246C18.0022 21.2542 19.7983 19.7802 21.0619 17.8891C22.3255 15.9979 23 13.7745 23 11.5C22.9968 8.451 21.7841 5.5278 19.6282 3.37183C17.4722 1.21586 14.549 0.0032198 11.5 0ZM21.1899 10.6154H16.7856C16.6297 7.46837 15.65 4.48168 14.0079 2.10096C15.9311 2.61728 17.6501 3.7099 18.934 5.232C20.2179 6.75409 21.0051 8.63271 21.1899 10.6154ZM11.5 21.2186C9.4289 18.9772 8.17275 15.8003 7.98698 12.3846H15.013C14.8273 15.7981 13.5711 18.9772 11.5 21.2186ZM7.98698 10.6154C8.17275 7.20188 9.42448 4.02279 11.5 1.78139C13.5711 4.02279 14.8273 7.19966 15.013 10.6154H7.98698ZM8.99212 2.10096C7.35005 4.48168 6.37034 7.46837 6.21443 10.6154H1.81015C1.99491 8.63271 2.78213 6.75409 4.06602 5.232C5.34992 3.7099 7.06896 2.61728 8.99212 2.10096ZM1.81015 12.3846H6.21443C6.37034 15.5316 7.35005 18.5183 8.99212 20.899C7.06896 20.3827 5.34992 19.2901 4.06602 17.768C2.78213 16.2459 1.99491 14.3673 1.81015 12.3846ZM14.0079 20.899C15.65 18.515 16.6297 15.5283 16.7856 12.3846H21.1899C21.0051 14.3673 20.2179 16.2459 18.934 17.768C17.6501 19.2901 15.9311 20.3827 14.0079 20.899Z" fill="#878787"/>
</svg>
