<svg width="22" height="22" viewBox="0 0 22 22" fill="none" xmlns="http://www.w3.org/2000/svg">
<path d="M17.1875 6.50031V3.4375C17.1875 3.07283 17.0426 2.72309 16.7848 2.46523C16.5269 2.20737 16.1772 2.0625 15.8125 2.0625H6.1875C5.82283 2.0625 5.47309 2.20737 5.21523 2.46523C4.95737 2.72309 4.8125 3.07283 4.8125 3.4375V6.53125C4.81296 6.74463 4.86287 6.955 4.95829 7.14585C5.05372 7.33671 5.19207 7.50285 5.3625 7.63125L9.85445 11L5.3625 14.3687C5.19207 14.4971 5.05372 14.6633 4.95829 14.8541C4.86287 15.045 4.81296 15.2554 4.8125 15.4688V18.5625C4.8125 18.9272 4.95737 19.2769 5.21523 19.5348C5.47309 19.7926 5.82283 19.9375 6.1875 19.9375H15.8125C16.1772 19.9375 16.5269 19.7926 16.7848 19.5348C17.0426 19.2769 17.1875 18.9272 17.1875 18.5625V15.4997C17.187 15.2871 17.1375 15.0775 17.0429 14.8872C16.9482 14.6969 16.811 14.5309 16.6418 14.4023L12.1404 11L16.6418 7.59688C16.8111 7.46847 16.9484 7.3027 17.043 7.11249C17.1377 6.92228 17.1871 6.71277 17.1875 6.50031ZM15.8125 18.5625H6.1875V15.4688L11 11.8594L15.8125 15.4988V18.5625ZM15.8125 6.50031L11 10.1406L6.1875 6.53125V3.4375H15.8125V6.50031Z" fill="#515161"/>
</svg>
