<svg width="29" height="21" viewBox="0 0 29 21" fill="none" xmlns="http://www.w3.org/2000/svg">
<path fill-rule="evenodd" clip-rule="evenodd" d="M25.7287 0C26.6612 0 27.5522 0.400127 28.1732 1.0972C28.7931 1.79535 29.087 2.72791 28.9775 3.65525L27.2655 17.9505C27.0707 19.5947 25.6744 20.8368 24.0166 20.8368H20.2732V11.4109H17.5075L14.3978 18.1549L11.3018 11.4109H8.53609V20.8368H4.98339C3.32558 20.8368 1.9293 19.5948 1.73446 17.9485L0.0224499 3.65738C-0.0869183 2.72791 0.206829 1.79535 0.826867 1.09827C1.44786 0.400127 2.33882 0 3.27245 0H25.7287ZM11.2743 20.8368H13.1002L11.2743 17.0605V20.8368ZM15.709 20.8368H17.535V17.0605L15.709 20.8368Z" fill="#CDFF65"/>
</svg>
