<svg width="12" height="14" viewBox="0 0 12 14" fill="none" xmlns="http://www.w3.org/2000/svg">
<path d="M5.85925 13.4584C4.40936 13.4584 3.24945 13.2196 2.37952 12.7419C1.52665 12.2643 0.912575 11.5394 0.53731 10.5671C0.179103 9.59484 0 8.3667 0 6.8827C0 5.33046 0.221749 4.05115 0.665243 3.04476C1.1258 2.02131 1.79957 1.26225 2.68656 0.767586C3.57354 0.255862 4.69081 0 6.03835 0C8.01702 0 9.50102 0.477609 10.4904 1.43283C11.4967 2.38805 11.9999 3.89764 11.9999 5.96159L11.7953 7.9829H3.91469C3.93175 8.80166 4.10233 9.41573 4.42642 9.82511C4.76757 10.2174 5.34752 10.4136 6.16628 10.4136C6.69506 10.4136 7.28355 10.4051 7.93173 10.388C8.59697 10.3539 9.25369 10.3198 9.90187 10.2857C10.5501 10.2516 11.1044 10.2174 11.565 10.1833L11.6417 12.8443C11.1982 12.9296 10.6439 13.0234 9.97863 13.1257C9.31339 13.211 8.62256 13.2878 7.90615 13.356C7.18973 13.4242 6.50743 13.4584 5.85925 13.4584ZM3.88911 5.60338H8.08525C8.08525 4.57993 7.9232 3.87205 7.59911 3.47973C7.27502 3.07035 6.75477 2.86566 6.03835 2.86566C5.32194 2.86566 4.78463 3.07888 4.42642 3.50531C4.08527 3.91469 3.90617 4.61405 3.88911 5.60338Z" fill="#161919"/>
</svg>
