<svg width="19" height="13" viewBox="0 0 19 13" fill="none" xmlns="http://www.w3.org/2000/svg">
<path d="M0 12.9351V0.27682H3.82516V1.05695C4.21103 0.822072 4.72273 0.587194 5.36025 0.352317C5.99778 0.117439 6.61014 0 7.19733 0C7.9523 0 8.56466 0.10905 9.03442 0.32715C9.52095 0.528475 9.91521 0.822072 10.2172 1.20794C10.5192 1.0234 10.8883 0.838849 11.3245 0.654302C11.7775 0.469755 12.264 0.318762 12.7841 0.201323C13.3042 0.0671075 13.8159 0 14.3192 0C15.5774 0 16.5421 0.226489 17.2132 0.679468C17.8843 1.11567 18.3457 1.81192 18.5973 2.7682C18.8657 3.70772 19 4.91566 19 6.39204V12.9351H15.1748V6.76952C15.1748 5.981 15.1329 5.33509 15.049 4.83178C14.9651 4.32847 14.7973 3.95937 14.5457 3.72449C14.294 3.47284 13.9333 3.34701 13.4635 3.34701C13.0441 3.34701 12.6247 3.40573 12.2053 3.52317C11.7858 3.64061 11.4587 3.75805 11.2238 3.87549C11.3245 4.17747 11.3916 4.5969 11.4251 5.13376C11.4587 5.65385 11.4755 6.19071 11.4755 6.74435V12.9351H7.62515V6.81985C7.62515 5.99778 7.58321 5.33509 7.49932 4.83178C7.41544 4.32847 7.24767 3.95937 6.99601 3.72449C6.76113 3.47284 6.40882 3.34701 5.93906 3.34701C5.53641 3.34701 5.13376 3.40573 4.73112 3.52317C4.34524 3.62383 4.05165 3.73288 3.85032 3.85032V12.9351H0Z" fill="#161919"/>
</svg>
