<svg width="9" height="17" viewBox="0 0 9 17" fill="none" xmlns="http://www.w3.org/2000/svg">
<path d="M5.60469 17C4.61302 17 3.80729 16.8672 3.1875 16.6016C2.56771 16.3182 2.11615 15.8313 1.83281 15.1406C1.56719 14.4323 1.43437 13.4406 1.43437 12.1656V6.66719H0V3.32031H1.43437V0H5.49844V3.32031H8.63281V6.66719H5.49844V11.1563C5.49844 11.7583 5.525 12.2276 5.57813 12.5641C5.64896 12.9005 5.78177 13.1396 5.97656 13.2813C6.17136 13.4229 6.46355 13.4938 6.85313 13.4938C6.95938 13.4938 7.12761 13.4849 7.35781 13.4672C7.58802 13.4495 7.81823 13.4406 8.04844 13.4406C8.29636 13.4229 8.48229 13.4052 8.60625 13.3875L8.7125 16.6016C8.2698 16.6901 7.73855 16.7787 7.11875 16.8672C6.51667 16.9557 6.01198 17 5.60469 17Z" fill="#161919"/>
</svg>
