<svg width="13" height="14" viewBox="0 0 13 14" fill="none" xmlns="http://www.w3.org/2000/svg">
<path d="M4.33842 14C2.88341 14 1.79215 13.6452 1.06464 12.9354C0.35488 12.2256 0 11.1433 0 9.68825C0 8.65909 0.186314 7.86948 0.558939 7.31942C0.949308 6.75161 1.50824 6.34349 2.23575 6.09508C2.96326 5.84666 3.84159 5.69584 4.87074 5.6426L7.85174 5.40306V4.71104C7.85174 4.17872 7.70091 3.8061 7.39927 3.59317C7.11536 3.3625 6.6895 3.24716 6.1217 3.24716C5.60712 3.24716 5.02156 3.2649 4.36503 3.30039C3.70851 3.33588 3.06085 3.38024 2.42206 3.43347C1.78328 3.4867 1.23321 3.53994 0.771866 3.59317L0.638786 0.771865C1.11787 0.647657 1.68568 0.53232 2.34221 0.425856C3.01649 0.301648 3.71738 0.204056 4.44488 0.13308C5.17239 0.0443596 5.85554 0 6.49432 0C7.64768 0 8.62361 0.141952 9.42209 0.425856C10.2383 0.692017 10.8594 1.15336 11.2852 1.80989C11.7111 2.44868 11.924 3.34475 11.924 4.49811V10.3536C11.9772 10.5666 12.1014 10.7351 12.2966 10.8594C12.5095 10.9658 12.7402 11.0457 12.9886 11.0989L12.9088 13.8137C12.5007 13.8492 12.066 13.8758 11.6046 13.8936C11.161 13.9113 10.8061 13.9025 10.54 13.867C10.0786 13.8137 9.67938 13.7073 9.34224 13.5476C9.02285 13.3701 8.7833 13.1927 8.62361 13.0153C8.3397 13.1395 7.96707 13.2814 7.50573 13.4411C7.04438 13.6008 6.53868 13.7339 5.98862 13.8404C5.45629 13.9468 4.90623 14 4.33842 14ZM5.34983 11.0457C5.65148 11.0457 5.95313 11.0102 6.25478 10.9392C6.57417 10.8682 6.87582 10.7884 7.15972 10.6997C7.44363 10.6109 7.6743 10.5311 7.85174 10.4601V7.82512L5.50953 8.03805C5.01269 8.09128 4.64894 8.25098 4.41827 8.51714C4.1876 8.76556 4.07226 9.12044 4.07226 9.58178C4.07226 10.0254 4.17872 10.3803 4.39165 10.6464C4.60458 10.9126 4.92397 11.0457 5.34983 11.0457Z" fill="#161919"/>
</svg>
