<svg width="11" height="14" viewBox="0 0 11 14" fill="none" xmlns="http://www.w3.org/2000/svg">
<path d="M5.47358 13.9087C4.82134 13.9087 4.15146 13.8735 3.46396 13.8029C2.77646 13.7324 2.14184 13.6531 1.5601 13.565C0.978369 13.4592 0.493594 13.3622 0.105772 13.2741L0.237982 10.3654C0.696317 10.4183 1.21635 10.48 1.79808 10.5505C2.37982 10.621 2.95274 10.6827 3.51684 10.7356C4.08095 10.7885 4.53928 10.8149 4.89185 10.8149C5.36781 10.8149 5.75563 10.7797 6.05531 10.7092C6.355 10.6387 6.57535 10.5153 6.71638 10.339C6.87503 10.1627 6.95435 9.91591 6.95435 9.5986C6.95435 9.36943 6.87503 9.18433 6.71638 9.0433C6.57535 8.90228 6.31092 8.7877 5.9231 8.69955C5.55291 8.59378 4.99762 8.48801 4.25723 8.38224C3.27005 8.24122 2.45914 8.03849 1.82453 7.77407C1.18991 7.49202 0.722761 7.08657 0.42308 6.55772C0.141028 6.01124 0 5.28848 0 4.38944C0 3.2436 0.237983 2.35337 0.713946 1.71876C1.20754 1.08414 1.85979 0.643431 2.67069 0.396636C3.48159 0.132212 4.37181 0 5.34137 0C6.01124 0 6.68112 0.0352558 7.35099 0.105768C8.0385 0.158653 8.67312 0.229167 9.25485 0.317308C9.83658 0.40545 10.3214 0.493591 10.7092 0.581733L10.577 3.59617C10.1363 3.52565 9.61623 3.46396 9.01687 3.41107C8.43513 3.34056 7.8534 3.28767 7.27167 3.25242C6.70756 3.21716 6.2316 3.19953 5.84377 3.19953C5.47358 3.19953 5.14746 3.23479 4.8654 3.3053C4.60098 3.35819 4.39826 3.46396 4.25723 3.62261C4.1162 3.76364 4.04569 3.97518 4.04569 4.25723C4.04569 4.46877 4.10739 4.64505 4.23079 4.78608C4.35419 4.90947 4.60098 5.02406 4.97118 5.12983C5.34137 5.21797 5.87903 5.30611 6.58416 5.39425C7.65949 5.53528 8.52327 5.75563 9.17552 6.05531C9.82776 6.35499 10.2949 6.77807 10.577 7.32455C10.859 7.8534 11 8.57616 11 9.49283C11 11.1146 10.5241 12.2605 9.57216 12.9303C8.62023 13.5826 7.25404 13.9087 5.47358 13.9087Z" fill="#161919"/>
</svg>
