<svg width="22" height="22" viewBox="0 0 22 22" fill="none" xmlns="http://www.w3.org/2000/svg">
<path d="M20.07 12.2228C19.9818 12.1345 19.8712 12.0718 19.7501 12.0415C19.6289 12.0112 19.5019 12.0145 19.3825 12.051C18.0715 12.4473 16.6777 12.4805 15.3493 12.1471C14.021 11.8137 12.8081 11.1262 11.8397 10.1578C10.8713 9.18943 10.1838 7.97645 9.85037 6.64814C9.51698 5.31983 9.55021 3.92595 9.94651 2.61504C9.9833 2.49559 9.98682 2.36837 9.9567 2.24706C9.92659 2.12576 9.86397 2.01496 9.77559 1.92658C9.68722 1.83821 9.57642 1.77559 9.45511 1.74548C9.33381 1.71536 9.20659 1.71888 9.08714 1.75566C7.27474 2.31086 5.68362 3.42353 4.54019 4.93535C3.54023 6.26296 2.93028 7.84311 2.77887 9.49826C2.62745 11.1534 2.94058 12.818 3.68305 14.305C4.42553 15.792 5.56795 17.0425 6.98196 17.9161C8.39597 18.7896 10.0255 19.2515 11.6876 19.25C13.6267 19.2559 15.5141 18.6256 17.0604 17.4556C18.5722 16.3122 19.6849 14.721 20.2401 12.9086C20.2765 12.7896 20.2798 12.663 20.2499 12.5422C20.2199 12.4214 20.1577 12.3111 20.07 12.2228ZM16.2337 16.3573C14.7775 17.4541 12.9742 17.988 11.1556 17.8606C9.33705 17.7333 7.62569 16.9533 6.33657 15.6643C5.04745 14.3753 4.26735 12.664 4.13986 10.8454C4.01238 9.02689 4.5461 7.22349 5.64277 5.76723C6.35725 4.82368 7.28096 4.05883 8.3412 3.53285C8.2808 3.95672 8.25036 4.38431 8.25011 4.81246C8.25261 7.18206 9.19504 9.4539 10.8706 11.1295C12.5462 12.805 14.818 13.7475 17.1876 13.75C17.6166 13.7498 18.0451 13.7194 18.4698 13.6589C17.9433 14.7193 17.1779 15.643 16.2337 16.3573Z" fill="#878787"/>
</svg>
