<svg width="18" height="18" viewBox="0 0 18 18" fill="none" xmlns="http://www.w3.org/2000/svg">
<path d="M17.7945 10.7801C17.704 10.6894 17.5904 10.625 17.466 10.5939C17.3417 10.5628 17.2112 10.5662 17.0885 10.6036C15.7424 11.0106 14.311 11.0447 12.9469 10.7023C11.5829 10.36 10.3372 9.65396 9.3428 8.65951C8.34835 7.66507 7.64233 6.41945 7.29996 5.05539C6.9576 3.69134 6.99172 2.25995 7.39869 0.913763C7.43646 0.791097 7.44008 0.660455 7.40916 0.535888C7.37823 0.41132 7.31393 0.297539 7.22317 0.206783C7.13242 0.116026 7.01864 0.0517271 6.89407 0.020801C6.7695 -0.0101251 6.63886 -0.00650826 6.51619 0.0312625C4.65502 0.601397 3.02108 1.74401 1.84688 3.29651C0.820018 4.65985 0.193656 6.28252 0.0381682 7.98221C-0.117319 9.68191 0.204228 11.3913 0.966686 12.9183C1.72914 14.4453 2.9023 15.7295 4.35436 16.6265C5.80642 17.5236 7.47985 17.9979 9.18664 17.9963C11.1779 18.0025 13.1161 17.3551 14.704 16.1537C16.2565 14.9795 17.3991 13.3455 17.9693 11.4844C18.0066 11.3621 18.0101 11.2321 17.9793 11.1081C17.9485 10.984 17.8847 10.8707 17.7945 10.7801ZM13.8551 15.0258C12.3597 16.1521 10.5078 16.7004 8.64033 16.5696C6.77283 16.4388 5.01542 15.6379 3.69161 14.3142C2.3678 12.9905 1.5667 11.2331 1.43579 9.36564C1.30487 7.49815 1.85295 5.64622 2.97913 4.15077C3.71285 3.18184 4.66141 2.39641 5.75018 1.85627C5.68816 2.29155 5.6569 2.73065 5.65664 3.17032C5.65921 5.60369 6.627 7.93665 8.34765 9.65731C10.0683 11.378 12.4013 12.3458 14.8346 12.3483C15.2752 12.3482 15.7152 12.3169 16.1513 12.2548C15.6107 13.3437 14.8246 14.2923 13.8551 15.0258Z" fill="#878787"/>
</svg>
