<svg width="32" height="32" viewBox="0 0 32 32" fill="none" xmlns="http://www.w3.org/2000/svg">
<path d="M25.7076 7.70497L7.70755 25.705C7.51991 25.8926 7.26541 25.998 7.00005 25.998C6.73468 25.998 6.48019 25.8926 6.29255 25.705C6.10491 25.5173 5.99949 25.2628 5.99949 24.9975C5.99949 24.7321 6.10491 24.4776 6.29255 24.29L24.2925 6.28997C24.48 6.10233 24.7344 5.99685 24.9996 5.99673C25.2649 5.99661 25.5193 6.10187 25.7069 6.28935C25.8946 6.47682 26 6.73116 26.0002 6.9964C26.0003 7.26165 25.895 7.51608 25.7076 7.70372V7.70497ZM6.31755 12.68C5.47366 11.8359 4.99964 10.6912 4.99976 9.49765C4.99987 8.3041 5.47412 7.15948 6.31817 6.3156C7.16222 5.47171 8.30694 4.99769 9.50049 4.9978C10.694 4.99792 11.8387 5.47217 12.6825 6.31622C13.5264 7.16027 14.0005 8.30499 14.0003 9.49854C14.0002 10.6921 13.526 11.8367 12.6819 12.6806C11.8379 13.5245 10.6932 13.9985 9.49961 13.9984C8.30606 13.9983 7.16143 13.524 6.31755 12.68ZM7.00005 9.49997C7.00037 9.91103 7.10205 10.3157 7.29608 10.6781C7.49011 11.0404 7.7705 11.3494 8.11243 11.5775C8.45436 11.8057 8.84727 11.946 9.25637 11.9861C9.66547 12.0262 10.0781 11.9647 10.4578 11.8073C10.8375 11.6498 11.1725 11.4011 11.4332 11.0832C11.6938 10.7654 11.8721 10.3882 11.9522 9.98497C12.0322 9.58178 12.0116 9.16507 11.8922 8.77174C11.7728 8.37841 11.5583 8.02059 11.2675 7.72997C10.9178 7.3803 10.4721 7.14223 9.98701 7.04589C9.5019 6.94955 8.99911 6.99927 8.54226 7.18875C8.08541 7.37824 7.69502 7.69898 7.4205 8.11038C7.14598 8.52179 6.99966 9.00538 7.00005 9.49997ZM27 22.5C26.9998 23.5411 26.6386 24.5499 25.978 25.3545C25.3173 26.1591 24.3981 26.7098 23.377 26.9127C22.3559 27.1155 21.296 26.9581 20.3779 26.4671C19.4599 25.9762 18.7405 25.1821 18.3423 24.2202C17.944 23.2583 17.8917 22.188 18.1941 21.1918C18.4965 20.1956 19.1349 19.3351 20.0007 18.7569C20.8664 18.1786 21.9058 17.9185 22.9419 18.0207C23.978 18.1229 24.9465 18.5812 25.6826 19.3175C26.1017 19.7344 26.434 20.2304 26.6601 20.7767C26.8863 21.323 27.0018 21.9087 27 22.5ZM25 22.5C25.0002 21.9216 24.7997 21.361 24.4329 20.9139C24.0661 20.4667 23.5555 20.1605 22.9883 20.0476C22.421 19.9346 21.8321 20.0219 21.322 20.2944C20.8118 20.567 20.412 21.008 20.1905 21.5423C19.9691 22.0766 19.9398 22.6712 20.1076 23.2247C20.2754 23.7782 20.6299 24.2565 21.1108 24.5779C21.5916 24.8993 22.1691 25.044 22.7447 24.9874C23.3203 24.9308 23.8585 24.6764 24.2675 24.2675C24.5004 24.0359 24.6851 23.7605 24.8108 23.4571C24.9366 23.1537 25.0009 22.8284 25 22.5Z" fill="#878787"/>
</svg>
