<svg width="18" height="18" viewBox="0 0 18 18" fill="none" xmlns="http://www.w3.org/2000/svg">
<path d="M9 0C7.21997 0 5.47991 0.527841 3.99987 1.51677C2.51983 2.50571 1.36628 3.91131 0.685088 5.55585C0.00389956 7.20038 -0.17433 9.00998 0.172937 10.7558C0.520204 12.5016 1.37737 14.1053 2.63604 15.364C3.89472 16.6226 5.49836 17.4798 7.24419 17.8271C8.99002 18.1743 10.7996 17.9961 12.4442 17.3149C14.0887 16.6337 15.4943 15.4802 16.4832 14.0001C17.4722 12.5201 18 10.78 18 9C17.9975 6.61383 17.0485 4.3261 15.3612 2.63882C13.6739 0.951541 11.3862 0.00251984 9 0ZM9 16.6154C7.49382 16.6154 6.02147 16.1688 4.76912 15.332C3.51678 14.4952 2.5407 13.3058 1.96431 11.9143C1.38792 10.5228 1.23711 8.99155 1.53095 7.51431C1.82479 6.03707 2.55008 4.68014 3.61511 3.61511C4.68014 2.55008 6.03708 1.82478 7.51432 1.53094C8.99156 1.2371 10.5228 1.38791 11.9143 1.9643C13.3058 2.54069 14.4952 3.51678 15.332 4.76912C16.1688 6.02146 16.6154 7.49382 16.6154 9C16.6131 11.019 15.81 12.9547 14.3824 14.3824C12.9547 15.81 11.019 16.6131 9 16.6154ZM13.1538 9C13.1538 9.18361 13.0809 9.3597 12.9511 9.48954C12.8212 9.61937 12.6452 9.69231 12.4615 9.69231H9.69231V12.4615C9.69231 12.6452 9.61937 12.8212 9.48954 12.9511C9.35971 13.0809 9.18362 13.1538 9 13.1538C8.81639 13.1538 8.6403 13.0809 8.51047 12.9511C8.38064 12.8212 8.3077 12.6452 8.3077 12.4615V9.69231H5.53847C5.35485 9.69231 5.17876 9.61937 5.04893 9.48954C4.9191 9.3597 4.84616 9.18361 4.84616 9C4.84616 8.81639 4.9191 8.6403 5.04893 8.51046C5.17876 8.38063 5.35485 8.30769 5.53847 8.30769H8.3077V5.53846C8.3077 5.35485 8.38064 5.17876 8.51047 5.04893C8.6403 4.91909 8.81639 4.84615 9 4.84615C9.18362 4.84615 9.35971 4.91909 9.48954 5.04893C9.61937 5.17876 9.69231 5.35485 9.69231 5.53846V8.30769H12.4615C12.6452 8.30769 12.8212 8.38063 12.9511 8.51046C13.0809 8.6403 13.1538 8.81639 13.1538 9Z" fill="#CDFF65"/>
</svg>
