<svg width="14" height="18" viewBox="0 0 14 18" fill="none" xmlns="http://www.w3.org/2000/svg">
<path d="M0 18.0001V0H6.82943C8.40003 0 9.69709 0.202942 10.7206 0.608825C11.7618 1.01471 12.5383 1.6853 13.05 2.6206C13.5795 3.53825 13.8442 4.80884 13.8442 6.43237C13.8442 8.02061 13.5795 9.30885 13.05 10.2971C12.5383 11.2677 11.7618 11.9736 10.7206 12.4147C9.69709 12.8559 8.40003 13.0765 6.82943 13.0765H4.18237V18.0001H0ZM4.18237 9.68827H6.69708C7.72061 9.68827 8.45297 9.42356 8.89415 8.89415C9.35297 8.34708 9.58238 7.52649 9.58238 6.43237C9.58238 5.32061 9.36179 4.53531 8.92062 4.07648C8.47944 3.61766 7.73826 3.38825 6.69708 3.38825H4.18237V9.68827Z" fill="#4F56D3"/>
</svg>
