<svg width="15" height="18" viewBox="0 0 15 18" fill="none" xmlns="http://www.w3.org/2000/svg">
<path d="M7.51261 17.7479C5.68068 17.7479 4.21009 17.4286 3.10084 16.7899C2.00841 16.1513 1.21849 15.1765 0.731094 13.8656C0.243699 12.5546 0 10.9076 0 8.92438C0 6.92438 0.243699 5.26891 0.731094 3.95799C1.21849 2.63026 2.00841 1.63866 3.10084 0.983194C4.21009 0.327731 5.68068 0 7.51261 0C9.34455 0 10.8067 0.327731 11.8992 0.983194C12.9916 1.63866 13.7815 2.63026 14.2689 3.95799C14.7563 5.26891 15 6.92438 15 8.92438C15 10.9412 14.7563 12.6051 14.2689 13.916C13.7815 15.2101 12.9916 16.1765 11.8992 16.8151C10.8235 17.437 9.36136 17.7479 7.51261 17.7479ZM7.51261 14.4202C8.48741 14.4202 9.2185 14.2185 9.70589 13.8151C10.1933 13.4118 10.521 12.7983 10.6891 11.9748C10.8572 11.1513 10.9412 10.1345 10.9412 8.92438C10.9412 7.71429 10.8572 6.68908 10.6891 5.84875C10.521 5.00841 10.1933 4.37816 9.70589 3.95799C9.2185 3.52101 8.48741 3.30252 7.51261 3.30252C6.55463 3.30252 5.82354 3.52101 5.31933 3.95799C4.83194 4.37816 4.4958 5.00841 4.31093 5.84875C4.14286 6.67228 4.05883 7.69749 4.05883 8.92438C4.05883 10.1177 4.14286 11.1261 4.31093 11.9496C4.4958 12.7731 4.83194 13.395 5.31933 13.8151C5.80673 14.2185 6.53782 14.4202 7.51261 14.4202Z" fill="#4F56D3"/>
</svg>
