<svg width="13" height="18" viewBox="0 0 13 18" fill="none" xmlns="http://www.w3.org/2000/svg">
<path d="M6.53618 18C5.8383 18 5.08937 17.9575 4.28937 17.8724C3.48936 17.7873 2.72341 17.6851 1.99149 17.566C1.25958 17.4468 0.638299 17.3362 0.12766 17.2341L0.357447 14.0936C0.885108 14.1617 1.50638 14.2383 2.22128 14.3234C2.93617 14.3915 3.65107 14.4596 4.36596 14.5277C5.08085 14.5787 5.70213 14.6043 6.22979 14.6043C7.09788 14.6043 7.72767 14.4426 8.11916 14.1192C8.51065 13.7958 8.70639 13.2936 8.70639 12.6128C8.70639 12.2383 8.62129 11.9404 8.45107 11.7192C8.29788 11.4979 8.00852 11.3192 7.58299 11.183C7.17448 11.0298 6.57873 10.8851 5.79575 10.7489C4.38298 10.4936 3.25107 10.1787 2.4 9.80427C1.54894 9.41278 0.93617 8.8681 0.561702 8.17022C0.187233 7.47235 0 6.5532 0 5.41277C0 4.01703 0.246809 2.92766 0.740426 2.14468C1.25107 1.3617 1.97447 0.808511 2.91064 0.485107C3.84681 0.161702 4.9532 0 6.22979 0C6.82554 0 7.49788 0.0340427 8.24682 0.102128C8.99575 0.170212 9.72767 0.246808 10.4426 0.331916C11.1575 0.417022 11.7787 0.510639 12.3064 0.612766L12.1277 3.80426C11.617 3.73617 11.0213 3.6766 10.3404 3.62554C9.65959 3.55745 8.97873 3.50639 8.29788 3.47234C7.63405 3.42128 7.05533 3.39575 6.56171 3.39575C5.69362 3.39575 5.05533 3.52341 4.64682 3.77873C4.25533 4.03405 4.05958 4.44256 4.05958 5.00426C4.05958 5.42979 4.14468 5.76171 4.3149 6.00001C4.50213 6.22128 4.80852 6.40852 5.23405 6.56171C5.6766 6.7149 6.28937 6.8766 7.07235 7.04682C8.12767 7.28512 9.01278 7.53192 9.72767 7.78724C10.4596 8.04256 11.0468 8.35746 11.4894 8.73193C11.9489 9.08937 12.2724 9.55746 12.4596 10.1362C12.6638 10.7149 12.766 11.4468 12.766 12.3319C12.766 13.6936 12.5192 14.7915 12.0255 15.6256C11.5489 16.4596 10.8426 17.0639 9.9064 17.4383C8.98724 17.8128 7.86384 18 6.53618 18Z" fill="#4F56D3"/>
</svg>
