<svg width="22" height="22" viewBox="0 0 22 22" fill="none" xmlns="http://www.w3.org/2000/svg">
<path d="M14.2364 13.2636C14.3003 13.3275 14.351 13.4033 14.3855 13.4868C14.4201 13.5702 14.4379 13.6597 14.4379 13.75C14.4379 13.8403 14.4201 13.9298 14.3855 14.0132C14.351 14.0967 14.3003 14.1725 14.2364 14.2364C14.1725 14.3003 14.0967 14.351 14.0132 14.3855C13.9298 14.4201 13.8403 14.4379 13.75 14.4379C13.6597 14.4379 13.5702 14.4201 13.4868 14.3855C13.4033 14.351 13.3275 14.3003 13.2636 14.2364L7.7636 8.73641C7.63459 8.6074 7.56212 8.43244 7.56212 8.25C7.56212 8.06756 7.63459 7.8926 7.7636 7.76359C7.8926 7.63459 8.06757 7.56212 8.25 7.56212C8.43244 7.56212 8.60741 7.63459 8.73641 7.76359L14.2364 13.2636ZM19.9375 11C19.9375 12.7677 19.4133 14.4956 18.4313 15.9654C17.4492 17.4352 16.0534 18.5807 14.4202 19.2572C12.7871 19.9336 10.9901 20.1106 9.25638 19.7658C7.52268 19.4209 5.93017 18.5697 4.68024 17.3198C3.43031 16.0698 2.57909 14.4773 2.23424 12.7436C1.88938 11.0099 2.06637 9.21288 2.74283 7.57977C3.41929 5.94665 4.56483 4.55081 6.0346 3.56874C7.50436 2.58668 9.23233 2.0625 11 2.0625C13.3696 2.065 15.6414 3.00743 17.317 4.683C18.9926 6.35856 19.935 8.6304 19.9375 11ZM18.5625 11C18.5625 9.50428 18.119 8.04215 17.288 6.7985C16.457 5.55485 15.2759 4.58555 13.894 4.01316C12.5122 3.44077 10.9916 3.29101 9.52463 3.58281C8.05765 3.87461 6.71014 4.59487 5.65251 5.65251C4.59487 6.71014 3.87462 8.05765 3.58282 9.52463C3.29101 10.9916 3.44078 12.5122 4.01316 13.894C4.58555 15.2759 5.55486 16.457 6.7985 17.288C8.04215 18.119 9.50428 18.5625 11 18.5625C13.005 18.5602 14.9272 17.7627 16.345 16.345C17.7627 14.9272 18.5602 13.005 18.5625 11Z" fill="#F27277"/>
</svg>
