<svg width="17" height="17" viewBox="0 0 17 17" fill="none" xmlns="http://www.w3.org/2000/svg">
<path d="M14.6687 13.6682C14.8009 13.8009 14.8751 13.9806 14.8751 14.168C14.8751 14.3553 14.8009 14.5351 14.6687 14.6678C14.5722 14.7626 12.2914 17 8.5 17C5.18943 17 2.78641 15.0167 1.41667 13.4716V15.5833C1.41667 15.7712 1.34204 15.9514 1.2092 16.0842C1.07636 16.217 0.896195 16.2917 0.708333 16.2917C0.520472 16.2917 0.340304 16.217 0.207466 16.0842C0.0746279 15.9514 0 15.7712 0 15.5833V11.3333C0 11.1455 0.0746279 10.9653 0.207466 10.8325C0.340304 10.6996 0.520472 10.625 0.708333 10.625H4.95833C5.1462 10.625 5.32636 10.6996 5.4592 10.8325C5.59204 10.9653 5.66667 11.1455 5.66667 11.3333C5.66667 11.5212 5.59204 11.7014 5.4592 11.8342C5.32636 11.967 5.1462 12.0417 4.95833 12.0417H2.07542C3.16625 13.4008 5.40104 15.5833 8.5 15.5833C11.6875 15.5833 13.6478 13.6832 13.6673 13.6638C13.8007 13.5316 13.9811 13.4578 14.1689 13.4587C14.3567 13.4595 14.5365 13.5349 14.6687 13.6682ZM16.2917 0.708333C16.1038 0.708333 15.9236 0.782961 15.7908 0.915799C15.658 1.04864 15.5833 1.2288 15.5833 1.41667V3.52839C14.2136 1.98333 11.8106 0 8.5 0C4.70865 0 2.42781 2.23745 2.33219 2.33219C2.19904 2.46486 2.12405 2.645 2.12372 2.83297C2.12339 3.02093 2.19774 3.20133 2.33042 3.33448C2.46309 3.46763 2.64323 3.54261 2.8312 3.54295C3.01916 3.54328 3.19956 3.46893 3.33271 3.33625C3.35219 3.31677 5.3125 1.41667 8.5 1.41667C11.599 1.41667 13.8338 3.59922 14.9246 4.95833H12.0417C11.8538 4.95833 11.6736 5.03296 11.5408 5.1658C11.408 5.29864 11.3333 5.4788 11.3333 5.66667C11.3333 5.85453 11.408 6.0347 11.5408 6.16753C11.6736 6.30037 11.8538 6.375 12.0417 6.375H16.2917C16.4795 6.375 16.6597 6.30037 16.7925 6.16753C16.9254 6.0347 17 5.85453 17 5.66667V1.41667C17 1.2288 16.9254 1.04864 16.7925 0.915799C16.6597 0.782961 16.4795 0.708333 16.2917 0.708333Z" fill="#515161"/>
</svg>
