<svg width="18" height="18" viewBox="0 0 18 18" fill="none" xmlns="http://www.w3.org/2000/svg">
<path d="M17.7973 16.8188L13.469 12.4913C14.7235 10.9852 15.3491 9.05342 15.2156 7.09783C15.0821 5.14223 14.1997 3.31339 12.7522 1.99175C11.3046 0.670111 9.40322 -0.0425678 7.44358 0.00196836C5.48393 0.0465045 3.6169 0.844826 2.23086 2.23086C0.844826 3.6169 0.0465045 5.48393 0.00196836 7.44358C-0.0425678 9.40322 0.670111 11.3046 1.99175 12.7522C3.31339 14.1997 5.14223 15.0821 7.09783 15.2156C9.05342 15.3491 10.9852 14.7235 12.4913 13.469L16.8188 17.7973C16.883 17.8616 16.9593 17.9125 17.0432 17.9473C17.1272 17.9821 17.2172 18 17.308 18C17.3989 18 17.4889 17.9821 17.5728 17.9473C17.6568 17.9125 17.7331 17.8616 17.7973 17.7973C17.8616 17.7331 17.9125 17.6568 17.9473 17.5728C17.9821 17.4889 18 17.3989 18 17.308C18 17.2172 17.9821 17.1272 17.9473 17.0432C17.9125 16.9593 17.8616 16.883 17.7973 16.8188ZM1.40222 7.62623C1.40222 6.39524 1.76725 5.19189 2.45116 4.16836C3.13506 3.14482 4.10712 2.34708 5.24441 1.876C6.38169 1.40491 7.63314 1.28166 8.84048 1.52181C10.0478 1.76197 11.1568 2.35475 12.0273 3.22519C12.8977 4.09563 13.4905 5.20465 13.7307 6.41199C13.9708 7.61933 13.8476 8.87077 13.3765 10.0081C12.9054 11.1453 12.1076 12.1174 11.0841 12.8013C10.0606 13.4852 8.85722 13.8502 7.62623 13.8502C5.97608 13.8484 4.39404 13.1921 3.22721 12.0253C2.06038 10.8584 1.40405 9.27638 1.40222 7.62623Z" fill="#515161"/>
</svg>
