<svg width="21" height="21" viewBox="0 0 21 21" fill="none" xmlns="http://www.w3.org/2000/svg">
<path d="M9.8 2.8V0.7C9.8 0.514348 9.87375 0.336301 10.005 0.205025C10.1363 0.0737498 10.3143 0 10.5 0C10.6857 0 10.8637 0.0737498 10.995 0.205025C11.1263 0.336301 11.2 0.514348 11.2 0.7V2.8C11.2 2.98565 11.1263 3.1637 10.995 3.29497C10.8637 3.42625 10.6857 3.5 10.5 3.5C10.3143 3.5 10.1363 3.42625 10.005 3.29497C9.87375 3.1637 9.8 2.98565 9.8 2.8ZM16.1 10.5C16.1 11.6076 15.7716 12.6903 15.1562 13.6112C14.5409 14.5321 13.6663 15.2499 12.643 15.6737C11.6198 16.0976 10.4938 16.2085 9.40749 15.9924C8.3212 15.7763 7.32338 15.243 6.5402 14.4598C5.75703 13.6766 5.22368 12.6788 5.0076 11.5925C4.79153 10.5062 4.90242 9.38024 5.32627 8.35697C5.75013 7.33371 6.46789 6.45911 7.38881 5.84377C8.30972 5.22843 9.39242 4.9 10.5 4.9C11.9847 4.90162 13.4082 5.49214 14.458 6.54199C15.5079 7.59185 16.0984 9.01528 16.1 10.5ZM14.7 10.5C14.7 9.66932 14.4537 8.85729 13.9922 8.16661C13.5307 7.47592 12.8747 6.93759 12.1073 6.61971C11.3398 6.30182 10.4953 6.21864 9.68062 6.3807C8.8659 6.54276 8.11753 6.94277 7.53015 7.53015C6.94277 8.11753 6.54276 8.8659 6.3807 9.68062C6.21864 10.4953 6.30182 11.3398 6.61971 12.1073C6.93759 12.8747 7.47592 13.5307 8.16661 13.9922C8.85729 14.4537 9.66932 14.7 10.5 14.7C11.6136 14.6988 12.6812 14.256 13.4686 13.4686C14.256 12.6812 14.6988 11.6136 14.7 10.5ZM4.40475 5.39525C4.5361 5.5266 4.71425 5.60039 4.9 5.60039C5.08575 5.60039 5.2639 5.5266 5.39525 5.39525C5.5266 5.2639 5.60039 5.08575 5.60039 4.9C5.60039 4.71425 5.5266 4.5361 5.39525 4.40475L3.99525 3.00475C3.8639 2.8734 3.68575 2.79961 3.5 2.79961C3.31425 2.79961 3.1361 2.8734 3.00475 3.00475C2.8734 3.1361 2.79961 3.31425 2.79961 3.5C2.79961 3.68575 2.8734 3.8639 3.00475 3.99525L4.40475 5.39525ZM4.40475 15.6047L3.00475 17.0047C2.8734 17.1361 2.79961 17.3142 2.79961 17.5C2.79961 17.6858 2.8734 17.8639 3.00475 17.9953C3.1361 18.1266 3.31425 18.2004 3.5 18.2004C3.68575 18.2004 3.8639 18.1266 3.99525 17.9953L5.39525 16.5953C5.46029 16.5302 5.51188 16.453 5.54708 16.368C5.58227 16.2831 5.60039 16.192 5.60039 16.1C5.60039 16.008 5.58227 15.9169 5.54708 15.832C5.51188 15.747 5.46029 15.6698 5.39525 15.6047C5.33021 15.5397 5.253 15.4881 5.16803 15.4529C5.08305 15.4177 4.99198 15.3996 4.9 15.3996C4.80802 15.3996 4.71695 15.4177 4.63197 15.4529C4.547 15.4881 4.46979 15.5397 4.40475 15.6047ZM16.1 5.6C16.192 5.60007 16.283 5.58203 16.368 5.5469C16.453 5.51176 16.5302 5.46023 16.5953 5.39525L17.9953 3.99525C18.1266 3.8639 18.2004 3.68575 18.2004 3.5C18.2004 3.31425 18.1266 3.1361 17.9953 3.00475C17.8639 2.8734 17.6858 2.79961 17.5 2.79961C17.3142 2.79961 17.1361 2.8734 17.0047 3.00475L15.6047 4.40475C15.5067 4.50265 15.44 4.62743 15.4129 4.76329C15.3859 4.89914 15.3997 5.03998 15.4528 5.16795C15.5058 5.29593 15.5956 5.40529 15.7108 5.4822C15.826 5.55911 15.9615 5.60011 16.1 5.6ZM16.5953 15.6047C16.4639 15.4734 16.2858 15.3996 16.1 15.3996C15.9142 15.3996 15.7361 15.4734 15.6047 15.6047C15.4734 15.7361 15.3996 15.9142 15.3996 16.1C15.3996 16.2858 15.4734 16.4639 15.6047 16.5953L17.0047 17.9953C17.0698 18.0603 17.147 18.1119 17.232 18.1471C17.3169 18.1823 17.408 18.2004 17.5 18.2004C17.592 18.2004 17.6831 18.1823 17.768 18.1471C17.853 18.1119 17.9302 18.0603 17.9953 17.9953C18.0603 17.9302 18.1119 17.853 18.1471 17.768C18.1823 17.6831 18.2004 17.592 18.2004 17.5C18.2004 17.408 18.1823 17.3169 18.1471 17.232C18.1119 17.147 18.0603 17.0698 17.9953 17.0047L16.5953 15.6047ZM3.5 10.5C3.5 10.3143 3.42625 10.1363 3.29497 10.005C3.1637 9.87375 2.98565 9.8 2.8 9.8H0.7C0.514348 9.8 0.336301 9.87375 0.205025 10.005C0.0737498 10.1363 0 10.3143 0 10.5C0 10.6857 0.0737498 10.8637 0.205025 10.995C0.336301 11.1263 0.514348 11.2 0.7 11.2H2.8C2.98565 11.2 3.1637 11.1263 3.29497 10.995C3.42625 10.8637 3.5 10.6857 3.5 10.5ZM10.5 17.5C10.3143 17.5 10.1363 17.5737 10.005 17.705C9.87375 17.8363 9.8 18.0143 9.8 18.2V20.3C9.8 20.4857 9.87375 20.6637 10.005 20.795C10.1363 20.9263 10.3143 21 10.5 21C10.6857 21 10.8637 20.9263 10.995 20.795C11.1263 20.6637 11.2 20.4857 11.2 20.3V18.2C11.2 18.0143 11.1263 17.8363 10.995 17.705C10.8637 17.5737 10.6857 17.5 10.5 17.5ZM20.3 9.8H18.2C18.0143 9.8 17.8363 9.87375 17.705 10.005C17.5737 10.1363 17.5 10.3143 17.5 10.5C17.5 10.6857 17.5737 10.8637 17.705 10.995C17.8363 11.1263 18.0143 11.2 18.2 11.2H20.3C20.4857 11.2 20.6637 11.1263 20.795 10.995C20.9263 10.8637 21 10.6857 21 10.5C21 10.3143 20.9263 10.1363 20.795 10.005C20.6637 9.87375 20.4857 9.8 20.3 9.8Z" fill="#4F56D3"/>
</svg>
