<svg width="18" height="18" viewBox="0 0 18 18" fill="none" xmlns="http://www.w3.org/2000/svg">
<path d="M16.8751 3.9375V8.4375C16.8751 8.58668 16.8158 8.72976 16.7103 8.83525C16.6048 8.94074 16.4618 9 16.3126 9C16.1634 9 16.0203 8.94074 15.9148 8.83525C15.8093 8.72976 15.7501 8.58668 15.7501 8.4375V5.29523L9.96054 11.0855C9.9083 11.1378 9.84626 11.1793 9.77797 11.2076C9.70969 11.2359 9.63649 11.2504 9.56257 11.2504C9.48865 11.2504 9.41545 11.2359 9.34717 11.2076C9.27888 11.1793 9.21684 11.1378 9.1646 11.0855L6.75007 8.67023L2.08554 13.3355C1.97999 13.441 1.83684 13.5003 1.68757 13.5003C1.5383 13.5003 1.39515 13.441 1.2896 13.3355C1.18405 13.2299 1.12476 13.0868 1.12476 12.9375C1.12476 12.7882 1.18405 12.6451 1.2896 12.5395L6.3521 7.47703C6.40434 7.42473 6.46638 7.38324 6.53466 7.35494C6.60295 7.32663 6.67615 7.31206 6.75007 7.31206C6.82399 7.31206 6.89719 7.32663 6.96547 7.35494C7.03376 7.38324 7.0958 7.42473 7.14804 7.47703L9.56257 9.89227L14.9548 4.5H11.8126C11.6634 4.5 11.5203 4.44074 11.4148 4.33525C11.3093 4.22976 11.2501 4.08668 11.2501 3.9375C11.2501 3.78832 11.3093 3.64524 11.4148 3.53975C11.5203 3.43426 11.6634 3.375 11.8126 3.375H16.3126C16.4618 3.375 16.6048 3.43426 16.7103 3.53975C16.8158 3.64524 16.8751 3.78832 16.8751 3.9375Z" fill="#89D233"/>
</svg>
