<svg width="18" height="18" viewBox="0 0 18 18" fill="none" xmlns="http://www.w3.org/2000/svg">
<path d="M16.8751 9.56245V14.0624C16.8751 14.2116 16.8158 14.3547 16.7103 14.4602C16.6048 14.5657 16.4618 14.6249 16.3126 14.6249H11.8126C11.6634 14.6249 11.5203 14.5657 11.4148 14.4602C11.3093 14.3547 11.2501 14.2116 11.2501 14.0624C11.2501 13.9133 11.3093 13.7702 11.4148 13.6647C11.5203 13.5592 11.6634 13.4999 11.8126 13.4999H14.9548L9.56257 8.10768L7.14804 10.5229C7.0958 10.5752 7.03376 10.6167 6.96547 10.645C6.89719 10.6733 6.82399 10.6879 6.75007 10.6879C6.67615 10.6879 6.60295 10.6733 6.53466 10.645C6.46638 10.6167 6.40434 10.5752 6.3521 10.5229L1.2896 5.46042C1.18405 5.35487 1.12476 5.21171 1.12476 5.06245C1.12476 4.91318 1.18405 4.77003 1.2896 4.66448C1.39515 4.55893 1.5383 4.49963 1.68757 4.49963C1.83684 4.49963 1.97999 4.55893 2.08554 4.66448L6.75007 9.32971L9.1646 6.91448C9.21684 6.86218 9.27888 6.82069 9.34717 6.79238C9.41545 6.76407 9.48865 6.7495 9.56257 6.7495C9.63649 6.7495 9.70969 6.76407 9.77797 6.79238C9.84626 6.82069 9.9083 6.86218 9.96054 6.91448L15.7501 12.7047V9.56245C15.7501 9.41326 15.8093 9.27019 15.9148 9.1647C16.0203 9.05921 16.1634 8.99995 16.3126 8.99995C16.4618 8.99995 16.6048 9.05921 16.7103 9.1647C16.8158 9.27019 16.8751 9.41326 16.8751 9.56245Z" fill="#F27277"/>
</svg>
